<svg width="48" height="48" fill="none" xmlns="http://www.w3.org/2000/svg"><rect width="48" height="48" rx="24" fill="#10D173"/><path fill-rule="evenodd" clip-rule="evenodd" d="M32.41 14v4.061h-6.187v2.655C31.233 20.944 35 21.924 35 23.1c0 1.175-3.767 2.155-8.777 2.383V34h-4.407v-8.515C16.785 25.26 13 24.278 13 23.1c0-1.179 3.787-2.161 8.816-2.385V18.06h-6.187V14h16.78zm-6.187 10.466c3.954-.18 6.882-.831 6.882-1.606 0-.775-2.928-1.426-6.886-1.606v2.454a42.563 42.563 0 01-4.408.002v-2.463c-3.973.18-6.92.83-6.92 1.609s2.947 1.431 6.92 1.61l.262.01h.004c.263.01.53.019.8.025h.026l.228.004h.067l.191.003h1.224l.194-.003h.07l.244-.005h.012c.182-.004.363-.009.54-.015h.027l.24-.009h.028l.255-.01z" fill="#000"/></svg>