<?xml version="1.0" encoding="UTF-8"?>
<svg width="22px" height="22px" viewBox="0 0 22 22" version="1.1" xmlns="http://www.w3.org/2000/svg" xmlns:xlink="http://www.w3.org/1999/xlink">
    <!-- Generator: Sketch 49.1 (51147) - http://www.bohemiancoding.com/sketch -->
    <title>Fill 1</title>
    <desc>Created with Sketch.</desc>
    <defs></defs>
    <g id="Page-1" stroke="none" stroke-width="1" fill="none" fill-rule="evenodd">
        <g id="Crypto-coin" transform="translate(-288.000000, -214.000000)">
            <g id="USDT" transform="translate(288.000000, 214.000000)">
                <path d="M10.9999286,0.999857143 C16.5220714,0.999857143 20.9999286,5.47771429 20.9999286,10.9998571 C20.9999286,16.5234286 16.5220714,20.9998571 10.9999286,20.9998571 C5.47707143,20.9998571 0.999928571,16.5234286 0.999928571,10.9998571 C0.999928571,5.47771429 5.47707143,0.999857143 10.9999286,0.999857143" id="Fill-1" fill="#4FA68D"></path>
                <path d="M12.1865686,11.376 L12.1865686,11.3746667 C12.1193137,11.3786667 11.7768627,11.398 11.0137255,11.398 C10.4029412,11.398 9.97401961,11.382 9.82235294,11.3746667 L9.82235294,11.376 C7.47460784,11.28 5.72186275,10.8993333 5.72186275,10.444 C5.72186275,9.98933333 7.47460784,9.60866667 9.82235294,9.512 L9.82235294,10.998 C9.97607843,11.0073333 10.4159804,11.0313333 11.0233333,11.0313333 C11.7521569,11.0313333 12.1179412,11.0033333 12.1865686,10.998 L12.1865686,9.51266667 C14.5295098,9.60933333 16.2781373,9.99 16.2781373,10.444 C16.2781373,10.8993333 14.5295098,11.2786667 12.1865686,11.376 M12.1865686,8.028 L15.4559804,8.028 L15.4559804,6 L6.55294118,6 L6.55294118,8.028 L9.82235294,8.028 L9.82235294,9.35733333 C7.16509804,9.47133333 5.16666667,9.96066667 5.16666667,10.5473333 C5.16666667,11.1346667 7.16509804,11.624 9.82235294,11.738 L9.82235294,16 L12.1865686,16 L12.1865686,11.7373333 C14.8390196,11.6233333 16.8333333,11.134 16.8333333,10.5473333 C16.8333333,9.96133333 14.8390196,9.472 12.1865686,9.358 L12.1865686,8.028 Z" id="Fill-4" fill="#FFFFFF"></path>
            </g>
        </g>
    </g>
</svg>