<svg width="48" height="48" viewBox="0 0 48 48" fill="none" xmlns="http://www.w3.org/2000/svg">
<circle cx="24" cy="24" r="24" fill="url(#paint0_linear_7565_9991)"/>
<path d="M25.4105 17.7726C22.438 17.7726 19.4634 17.7971 16.4909 17.7563C15.7172 17.7462 15.4322 17.9253 15.4424 18.7601C15.4851 22.2721 15.4689 25.7862 15.4424 29.2982C15.4363 29.9681 15.589 30.2653 16.3362 30.2633C21.8761 30.249 27.418 30.2653 32.9578 30.2918C33.5259 30.2938 33.7376 30.1004 33.7234 29.5283C33.6928 28.3128 33.6704 27.0933 33.7213 25.8799C33.7519 25.1632 33.5075 24.9616 32.8011 24.9698C29.3216 25.0085 25.8401 24.9962 22.3606 25.0024C22.1244 25.0024 21.8862 25.0085 21.6501 24.9983C20.8845 24.9677 20.2941 24.6542 20.286 23.8215C20.2799 22.9725 20.9008 22.661 21.6501 22.6467C22.8981 22.6223 24.1462 22.6406 25.3942 22.6488C28.3993 22.6651 31.4044 22.6752 34.4095 22.7058C35.6596 22.718 35.9751 23.0417 35.9833 24.2694C35.9975 26.4988 36.0036 28.7282 35.9955 30.9576C35.9914 32.2056 35.6087 32.5782 34.3545 32.5843C32.8011 32.5924 31.2456 32.6067 29.6921 32.5721C29.0305 32.5578 28.8085 32.7777 28.8391 33.4516C28.8961 34.7322 28.8737 36.019 28.8635 37.3016C28.8554 38.395 28.3993 39.0648 27.6928 38.9732C26.7359 38.849 26.5853 38.1323 26.5934 37.322C26.6056 36.0373 26.5751 34.7546 26.6138 33.4699C26.6341 32.8286 26.4611 32.5375 25.7627 32.5843C24.9219 32.6413 24.0749 32.623 23.23 32.6006C22.7128 32.5863 22.5174 32.7492 22.5337 33.301C22.5724 34.5836 22.5398 35.8683 22.5459 37.153C22.55 38.3522 22.1774 38.9793 21.4343 38.9996C20.7033 39.018 20.2554 38.3359 20.2554 37.208C20.2554 35.9579 20.231 34.7078 20.2676 33.4598C20.2839 32.8958 20.1068 32.6637 19.5286 32.6698C18.0098 32.6902 16.4909 32.6617 14.9721 32.6759C13.5001 32.6902 13.099 32.2809 13.0888 30.8456C13.0542 26.4275 13.1865 22.0135 13.0094 17.5996C12.932 15.6613 13.3006 15.3274 15.2877 15.3457C16.6721 15.358 18.0586 15.3539 19.441 15.415C20.064 15.4414 20.2839 15.2521 20.2615 14.6209C20.2147 13.2385 20.2147 11.8561 20.2147 10.4716C20.2147 9.59821 20.7298 8.94466 21.4037 9.0037C22.2792 9.08107 22.5866 9.66947 22.5785 10.4859C22.5663 11.8703 22.5825 13.2568 22.5459 14.6413C22.5296 15.2175 22.7495 15.4557 23.3094 15.4089C23.342 15.4068 23.3766 15.4068 23.4112 15.4089C26.6748 15.527 26.6748 15.527 26.5954 12.2266C26.5832 11.6871 26.5669 11.1455 26.5669 10.606C26.5669 9.62671 27.0271 9.01388 27.7437 9.01796C28.4583 9.02203 28.8737 9.61246 28.8737 10.6427C28.8757 11.9274 28.8981 13.2121 28.8554 14.4947C28.833 15.2012 29.1078 15.4537 29.796 15.4414C31.3494 15.415 32.9049 15.4394 34.4583 15.4292C35.2585 15.4231 35.8856 15.6613 35.9772 16.5531C36.0505 17.2799 35.4275 17.7299 34.4319 17.7299C31.4248 17.7319 28.4176 17.7299 25.4105 17.7299C25.4105 17.7421 25.4105 17.7584 25.4105 17.7726Z" fill="black"/>
<circle cx="24" cy="24" r="20" stroke="black" stroke-width="2"/>
<defs>
<linearGradient id="paint0_linear_7565_9991" x1="6.5" y1="7" x2="39.5" y2="36.5" gradientUnits="userSpaceOnUse">
<stop stop-color="#B7860A"/>
<stop offset="1" stop-color="#E8CC79"/>
</linearGradient>
</defs>
</svg>
